<?xml version="1.0" standalone="no"?>
<!DOCTYPE svg PUBLIC "-//W3C//DTD SVG 1.1//EN" "http://www.w3.org/Graphics/SVG/1.1/DTD/svg11.dtd">
<svg xmlns="http://www.w3.org/2000/svg" xmlns:xlink="http://www.w3.org/1999/xlink" version="1.1" width="500" height="500" viewBox="0 0 500 500" xml:space="preserve">
<desc>Created with Fabric.js 3.6.3</desc>
<defs>
</defs>
<g transform="matrix(1 0 0 1 316.05397799550747 237.82058330290312)" style=""><path fill="#8c53ff" opacity="1" d="M-144.50 31.24L-116.56-33.40L-107.80-33.40L-79.96 31.24L-87.81 31.24L-97.06 9.46L-127.79 9.46L-136.84 31.24L-144.50 31.24ZM-111.68-25.74L-113.07-25.74L-125.21 3.30L-99.65 3.30L-111.68-25.74Z"/><path fill="#545454" opacity="1" d="M-63.55 2.40L-63.55-33.40L-56.09-33.40L-56.09 3.10Q-56.09 14.53-50.97 20.35Q-45.85 26.17-36.70 26.17Q-27.55 26.17-22.38 20.35Q-17.20 14.53-17.20 3.10L-17.20 3.10L-17.20-33.40L-9.75-33.40L-9.75 2.40Q-9.75 17.52-16.86 25.03Q-23.97 32.53-36.70 32.53Q-49.43 32.53-56.49 25.08Q-63.55 17.62-63.55 2.40L-63.55 2.40Z"/><path fill="#8c53ff" opacity="1" d="M12.63 31.24L12.63-33.40L37.99-33.40Q47.74-33.40 53.85-28.58Q59.97-23.75 59.97-15.50L59.97-15.50Q59.97-9.83 56.04-5.16Q52.11-0.48 44.95 1.41L44.95 1.41L64.54 31.24L55.49 31.24L37.39 2.70L20.09 2.70L20.09 31.24L12.63 31.24ZM36.50-27.04L20.09-27.04L20.09-3.77L36.60-3.77Q43.76-3.77 48.13-6.80Q52.51-9.83 52.51-15.50L52.51-15.50Q52.51-27.04 36.50-27.04L36.50-27.04Z"/><path fill="#8c53ff" opacity="1" d="M79.96 31.24L107.90-33.40L116.65-33.40L144.50 31.24L136.64 31.24L127.40 9.46L96.67 9.46L87.62 31.24L79.96 31.24ZM112.78-25.74L111.38-25.74L99.25 3.30L124.81 3.30L112.78-25.74Z"/></g><g transform="matrix(1 0 0 1 316.05397799550747 294.0369166970969)" style=""><path fill="#545454" opacity="1" d="M-143.15 13.81L-143.15-14.76L-131.94-14.76Q-127.63-14.76-124.93-12.63Q-122.22-10.50-122.22-6.85L-122.22-6.85Q-122.22-4.34-123.96-2.28Q-125.70-0.21-128.86 0.62L-128.86 0.62L-120.20 13.81L-124.20 13.81L-132.20 1.19L-139.85 1.19L-139.85 13.81L-143.15 13.81ZM-132.60-11.95L-139.85-11.95L-139.85-1.66L-132.55-1.66Q-129.39-1.66-127.46-3.00Q-125.52-4.34-125.52-6.85L-125.52-6.85Q-125.52-11.95-132.60-11.95L-132.60-11.95Z"/><path fill="#545454" opacity="1" d="M-85.97-2.81L-85.79-5.05L-76.91-5.05L-76.74-2.54L-78.98-2.54Q-79.02 1.32-79.53 3.72Q-80.03 6.12-81.40 8.40L-81.40 8.40Q-78.93 10.64-75.86 11.17L-75.86 11.17L-76.74 14.11Q-78.67 13.81-80.08 13.06Q-81.48 12.31-83.20 10.86L-83.20 10.86Q-85.44 12.75-87.70 13.56Q-89.97 14.38-92.87 14.38L-92.87 14.38Q-97.70 14.38-100.82 11.85Q-103.94 9.32-103.94 5.10L-103.94 5.10Q-103.94 2.51-102.54 0.45Q-101.13-1.62-98.67-2.85L-98.67-2.85Q-101.04-4.87-101.04-7.90L-101.04-7.90Q-101.04-10.54-98.54-12.32Q-96.03-14.10-92.16-14.10L-92.16-14.10Q-87.59-14.10-84.03-11.95L-84.03-11.95L-85.44-9.44Q-88.30-11.29-92.16-11.29L-92.16-11.29Q-94.98-11.29-96.40-10.34Q-97.83-9.40-97.83-7.73L-97.83-7.73Q-97.83-5.93-96.21-4.52L-96.21-4.52L-83.90 6.51Q-82.85 4.31-82.52 2.49Q-82.19 0.67-82.19-2.19L-82.19-2.19L-85.97-2.81ZM-85.61 8.84L-85.61 8.84L-96.87-0.96Q-100.69 0.71-100.69 4.80L-100.69 4.80Q-100.69 7.79-98.54 9.63Q-96.38 11.48-93.04 11.48L-93.04 11.48Q-90.49 11.48-88.82 10.91Q-87.15 10.33-85.61 8.84Z"/><path fill="#545454" opacity="1" d="M-40.08-13.00L-40.08-13.00L-41.49-10.41Q-44.92-12.56-49.05-12.56L-49.05-12.56Q-52.12-12.56-53.62-11.20Q-55.11-9.84-55.11-7.99L-55.11-7.99Q-55.11-6.19-53.93-5.05Q-52.74-3.91-50.10-3.38L-50.10-3.38L-45.93-2.50Q-38.37-0.92-38.37 5.94L-38.37 5.94Q-38.37 9.54-41.20 11.96Q-44.04 14.38-49.31 14.38L-49.31 14.38Q-52.34 14.38-54.52 13.85Q-56.70 13.32-59.16 12.05L-59.16 12.05L-58.01 9.06Q-53.79 11.48-49.40 11.48L-49.40 11.48Q-45.36 11.48-43.49 9.96Q-41.62 8.44-41.62 5.98L-41.62 5.98Q-41.62 3.57-42.94 2.27Q-44.26 0.97-47.38 0.31L-47.38 0.31L-51.99-0.65Q-54.81-1.22-56.52-3.07Q-58.23-4.92-58.23-7.82L-58.23-7.82Q-58.23-11.16-55.79-13.24Q-53.36-15.33-49.05-15.33L-49.05-15.33Q-43.86-15.33-40.08-13.00Z"/><path fill="#545454" opacity="1" d=""/><path fill="#545454" opacity="1" d="M9.10-14.76L9.10 10.95L22.90 10.95L22.90 13.81L5.80 13.81L5.80-14.76L9.10-14.76Z"/><path fill="#545454" opacity="1" d="M39.16 13.81L51.51-14.76L55.38-14.76L67.68 13.81L64.21 13.81L60.12 4.18L46.54 4.18L42.54 13.81L39.16 13.81ZM53.66-11.38L53.05-11.38L47.69 1.46L58.98 1.46L53.66-11.38Z"/><path fill="#545454" opacity="1" d="M84.82 13.81L84.82-14.76L94.76-14.76Q98.89-14.76 101.48-12.96Q104.07-11.16 104.07-7.55L104.07-7.55Q104.07-5.88 103.30-4.30Q102.54-2.72 101.13-1.84L101.13-1.84L101.13-1.66Q103.50-0.78 104.80 1.04Q106.10 2.86 106.10 5.28L106.10 5.28Q106.10 9.06 103.39 11.43Q100.69 13.81 96.16 13.81L96.16 13.81L84.82 13.81ZM96.16 0.01L88.08 0.01L88.08 10.99L95.77 10.99Q99.02 10.99 100.93 9.61Q102.84 8.22 102.84 5.46L102.84 5.46Q102.84 0.01 96.16 0.01L96.16 0.01ZM95.11-12.08L88.08-12.08L88.08-2.63L95.68-2.63Q98.18-2.63 99.50-3.93Q100.82-5.22 100.82-7.42L100.82-7.42Q100.82-9.66 99.31-10.87Q97.79-12.08 95.11-12.08L95.11-12.08Z"/><path fill="#545454" opacity="1" d="M142.31-13.00L142.31-13.00L140.90-10.41Q137.48-12.56 133.34-12.56L133.34-12.56Q130.27-12.56 128.77-11.20Q127.28-9.84 127.28-7.99L127.28-7.99Q127.28-6.19 128.47-5.05Q129.65-3.91 132.29-3.38L132.29-3.38L136.46-2.50Q144.02-0.92 144.02 5.94L144.02 5.94Q144.02 9.54 141.19 11.96Q138.35 14.38 133.08 14.38L133.08 14.38Q130.05 14.38 127.87 13.85Q125.70 13.32 123.24 12.05L123.24 12.05L124.38 9.06Q128.60 11.48 132.99 11.48L132.99 11.48Q137.04 11.48 138.90 9.96Q140.77 8.44 140.77 5.98L140.77 5.98Q140.77 3.57 139.45 2.27Q138.13 0.97 135.01 0.31L135.01 0.31L130.40-0.65Q127.59-1.22 125.87-3.07Q124.16-4.92 124.16-7.82L124.16-7.82Q124.16-11.16 126.60-13.24Q129.04-15.33 133.34-15.33L133.34-15.33Q138.53-15.33 142.31-13.00Z"/></g><g transform="matrix(0.7705620372664098 0 0 0.7705620372664099 95.9762528460346 250)">
<g style="">
		<g transform="matrix(1 0 0 1 -46.785 -51.07)">
<polygon style="stroke: none; stroke-width: 1; stroke-dasharray: none; stroke-linecap: butt; stroke-dashoffset: 0; stroke-linejoin: miter; stroke-miterlimit: 4; fill: rgb(140,83,255); fill-rule: evenodd; opacity: 1;" points="-3.7750000000000057,-18.430000000000003 -18.345000000000006,-3.7900000000000063 3.7749999999999986,18.429999999999993 18.345,3.799999999999997 "/>
</g>
		<g transform="matrix(1 0 0 1 -36.40812325166145 -40.69)">
<path style="stroke: none; stroke-width: 1; stroke-dasharray: none; stroke-linecap: butt; stroke-dashoffset: 0; stroke-linejoin: miter; stroke-miterlimit: 4; fill: rgb(140,83,255); fill-rule: evenodd; opacity: 1;" transform=" translate(-67.72687674833855, -60.61)" d="M 74.99 53.31 c -4.02 -4.04 -10.53 -4.04 -14.54 -0.01 c -4.01 4.03 -4.01 10.57 0.01 14.61 c 4.02 4.04 10.53 4.04 14.54 0.01 C 79.02 63.89 79.01 57.35 74.99 53.31 z" stroke-linecap="round"/>
</g>
		<g transform="matrix(1 0 0 1 -58.005 11.245000000000005)">
<rect style="stroke: none; stroke-width: 1; stroke-dasharray: none; stroke-linecap: butt; stroke-dashoffset: 0; stroke-linejoin: miter; stroke-miterlimit: 4; fill: rgb(140,83,255); fill-rule: evenodd; opacity: 1;" x="-10.305" y="-74.105" rx="0" ry="0" width="20.61" height="148.21"/>
</g>
		<g transform="matrix(1 0 0 1 -19.265000000000008 45.850000000000016)">
<path style="stroke: none; stroke-width: 1; stroke-dasharray: none; stroke-linecap: butt; stroke-dashoffset: 0; stroke-linejoin: miter; stroke-miterlimit: 4; fill: rgb(140,83,255); fill-rule: evenodd; opacity: 1;" transform=" translate(-84.87, -147.15)" d="M 119.33 97.95 l -79.2 79.55 c -2.6 1.89 -4.3 4.97 -4.3 8.44 c 0 5.75 4.64 10.41 10.37 10.41 c 2.52 0 4.83 -0.9 6.63 -2.41 l 0.04 0.04 l 81.04 -81.4 L 119.33 97.95 z" stroke-linecap="round"/>
</g>
		<g transform="matrix(0.21064237999158403 -0.9775631886233652 0.9775631886233652 0.21064237999158403 22.46938814866873 3.9437155235182306)">
<ellipse style="stroke: none; stroke-width: 1; stroke-dasharray: none; stroke-linecap: butt; stroke-dashoffset: 0; stroke-linejoin: miter; stroke-miterlimit: 4; fill: rgb(140,83,255); fill-rule: evenodd; opacity: 1;" cx="0" cy="0" rx="10.33" ry="10.28"/>
</g>
		<g transform="matrix(1 0 0 1 -57.984991863256454 -62.26)">
<path style="stroke: none; stroke-width: 1; stroke-dasharray: none; stroke-linecap: butt; stroke-dashoffset: 0; stroke-linejoin: miter; stroke-miterlimit: 4; fill: rgb(140,83,255); fill-rule: evenodd; opacity: 1;" transform=" translate(-46.15000813674355, -39.04)" d="M 46.15 28.7 c -5.67 0 -10.27 4.63 -10.27 10.34 c 0 5.71 4.6 10.34 10.27 10.34 c 5.67 0 10.27 -4.63 10.27 -10.34 C 56.43 33.33 51.83 28.7 46.15 28.7 z" stroke-linecap="round"/>
</g>
		<g transform="matrix(1 0 0 1 46.790000000000006 51.04500000000001)">
<polygon style="stroke: none; stroke-width: 1; stroke-dasharray: none; stroke-linecap: butt; stroke-dashoffset: 0; stroke-linejoin: miter; stroke-miterlimit: 4; fill: rgb(84,84,84); fill-rule: evenodd; opacity: 1;" points="-3.780000000000001,-18.42500000000001 -18.340000000000003,-3.7949999999999875 3.769999999999982,18.42500000000001 18.340000000000003,3.7949999999999875 "/>
</g>
		<g transform="matrix(1 0 0 1 36.428749994184315 40.675000000000026)">
<path style="stroke: none; stroke-width: 1; stroke-dasharray: none; stroke-linecap: butt; stroke-dashoffset: 0; stroke-linejoin: miter; stroke-miterlimit: 4; fill: rgb(84,84,84); fill-rule: evenodd; opacity: 1;" transform=" translate(-140.56374999418432, -141.97500000000002)" d="M 147.82 134.68 c -4.02 -4.04 -10.52 -4.04 -14.53 -0.01 c -4.01 4.03 -4 10.57 0.01 14.6 c 4.02 4.04 10.52 4.04 14.53 0.01 C 151.85 145.25 151.84 138.71 147.82 134.68 z" stroke-linecap="round"/>
</g>
		<g transform="matrix(1 0 0 1 58.010000000000005 -11.259999999999991)">
<rect style="stroke: none; stroke-width: 1; stroke-dasharray: none; stroke-linecap: butt; stroke-dashoffset: 0; stroke-linejoin: miter; stroke-miterlimit: 4; fill: rgb(84,84,84); fill-rule: evenodd; opacity: 1;" x="-10.3" y="-74.09" rx="0" ry="0" width="20.6" height="148.18"/>
</g>
		<g transform="matrix(1 0 0 1 19.30000000000001 -45.86)">
<path style="stroke: none; stroke-width: 1; stroke-dasharray: none; stroke-linecap: butt; stroke-dashoffset: 0; stroke-linejoin: miter; stroke-miterlimit: 4; fill: rgb(84,84,84); fill-rule: evenodd; opacity: 1;" transform=" translate(-123.43500000000002, -55.44)" d="M 162.08 6.25 c -2.52 0 -4.83 0.9 -6.62 2.41 l -0.04 -0.04 L 74.43 90 l 14.56 14.63 l 79.15 -79.53 c 2.6 -1.89 4.3 -4.97 4.3 -8.44 C 172.44 10.91 167.8 6.25 162.08 6.25 z" stroke-linecap="round"/>
</g>
		<g transform="matrix(0.1971440445213522 -0.9803745333849524 0.9803745333849524 0.1971440445213522 -22.41649252794397 -3.962243396618857)">
<ellipse style="stroke: none; stroke-width: 1; stroke-dasharray: none; stroke-linecap: butt; stroke-dashoffset: 0; stroke-linejoin: miter; stroke-miterlimit: 4; fill: rgb(84,84,84); fill-rule: evenodd; opacity: 1;" cx="0" cy="0" rx="10.33" ry="10.28"/>
</g>
		<g transform="matrix(1 0 0 1 57.985 62.239999999999995)">
<path style="stroke: none; stroke-width: 1; stroke-dasharray: none; stroke-linecap: butt; stroke-dashoffset: 0; stroke-linejoin: miter; stroke-miterlimit: 4; fill: rgb(84,84,84); fill-rule: evenodd; opacity: 1;" transform=" translate(-162.12, -163.54)" d="M 162.12 153.2 c -5.67 0 -10.27 4.63 -10.27 10.34 s 4.6 10.34 10.27 10.34 c 5.67 0 10.27 -4.63 10.27 -10.34 S 167.79 153.2 162.12 153.2 z" stroke-linecap="round"/>
</g>
</g>
</g>
<g transform="matrix(1 0 0 1 250.5 250.50920967741934)" style=""><path fill="#000000" opacity="1" d=""/></g></svg>