<?xml version="1.0" standalone="no"?>
<!DOCTYPE svg PUBLIC "-//W3C//DTD SVG 1.1//EN" "http://www.w3.org/Graphics/SVG/1.1/DTD/svg11.dtd">
<svg xmlns="http://www.w3.org/2000/svg" xmlns:xlink="http://www.w3.org/1999/xlink" version="1.1" width="500" height="500" viewBox="0 0 500 500" xml:space="preserve">
<desc>Created with Fabric.js 3.6.3</desc>
<defs>
</defs>
<g transform="matrix(1 0 0 1 250.5 352.8821146522962)" style=""><path fill="#8c53ff" opacity="1" d="M-202.11 43.70L-163.03-46.72L-150.78-46.72L-111.84 43.70L-122.83 43.70L-135.76 13.23L-178.74 13.23L-191.40 43.70L-202.11 43.70ZM-156.21-36.01L-158.16-36.01L-175.13 4.61L-139.38 4.61L-156.21-36.01Z"/><path fill="#545454" opacity="1" d="M-88.88 3.36L-88.88-46.72L-78.45-46.72L-78.45 4.33Q-78.45 20.33-71.29 28.47Q-64.13 36.60-51.33 36.60Q-38.53 36.60-31.30 28.47Q-24.06 20.33-24.06 4.33L-24.06 4.33L-24.06-46.72L-13.63-46.72L-13.63 3.36Q-13.63 24.50-23.58 35.00Q-33.52 45.51-51.33 45.51Q-69.13 45.51-79.01 35.07Q-88.88 24.64-88.88 3.36L-88.88 3.36Z"/><path fill="#8c53ff" opacity="1" d="M17.67 43.70L17.67-46.72L53.14-46.72Q66.77-46.72 75.32-39.97Q83.88-33.23 83.88-21.68L83.88-21.68Q83.88-13.75 78.38-7.21Q72.89-0.68 62.87 1.97L62.87 1.97L90.28 43.70L77.62 43.70L52.30 3.78L28.10 3.78L28.10 43.70L17.67 43.70ZM51.05-37.82L28.10-37.82L28.10-5.27L51.19-5.27Q61.20-5.27 67.32-9.51Q73.44-13.75 73.44-21.68L73.44-21.68Q73.44-37.82 51.05-37.82L51.05-37.82Z"/><path fill="#8c53ff" opacity="1" d="M111.84 43.70L150.92-46.72L163.16-46.72L202.11 43.70L191.12 43.70L178.19 13.23L135.21 13.23L122.55 43.70L111.84 43.70ZM157.74-36.01L155.79-36.01L138.82 4.61L174.57 4.61L157.74-36.01Z"/></g><g transform="matrix(1 0 0 1 250.5 431.4924742715988)" style=""><path fill="#545454" opacity="1" d="M-200.14 19.30L-200.14-20.64L-184.47-20.64Q-178.45-20.64-174.67-17.66Q-170.89-14.68-170.89-9.58L-170.89-9.58Q-170.89-6.07-173.32-3.19Q-175.75-0.30-180.17 0.87L-180.17 0.87L-168.07 19.30L-173.66 19.30L-184.84 1.67L-195.53 1.67L-195.53 19.30L-200.14 19.30ZM-185.39-16.71L-195.53-16.71L-195.53-2.33L-185.33-2.33Q-180.91-2.33-178.21-4.20Q-175.50-6.07-175.50-9.58L-175.50-9.58Q-175.50-16.71-185.39-16.71L-185.39-16.71Z"/><path fill="#545454" opacity="1" d="M-120.20-3.92L-119.95-7.06L-107.54-7.06L-107.29-3.56L-110.43-3.56Q-110.49 1.85-111.19 5.20Q-111.90 8.55-113.81 11.75L-113.81 11.75Q-110.36 14.88-106.06 15.62L-106.06 15.62L-107.29 19.73Q-110.00 19.30-111.96 18.26Q-113.93 17.21-116.32 15.19L-116.32 15.19Q-119.46 17.83-122.62 18.97Q-125.79 20.10-129.84 20.10L-129.84 20.10Q-136.60 20.10-140.97 16.57Q-145.33 13.04-145.33 7.14L-145.33 7.14Q-145.33 3.51-143.36 0.62Q-141.40-2.27-137.96-3.99L-137.96-3.99Q-141.27-6.81-141.27-11.05L-141.27-11.05Q-141.27-14.74-137.77-17.23Q-134.27-19.72-128.86-19.72L-128.86-19.72Q-122.47-19.72-117.49-16.71L-117.49-16.71L-119.46-13.20Q-123.45-15.78-128.86-15.78L-128.86-15.78Q-132.79-15.78-134.79-14.46Q-136.79-13.14-136.79-10.81L-136.79-10.81Q-136.79-8.29-134.51-6.32L-134.51-6.32L-117.31 9.10Q-115.83 6.03-115.37 3.48Q-114.91 0.93-114.91-3.06L-114.91-3.06L-120.20-3.92ZM-119.70 12.36L-119.70 12.36L-135.44-1.34Q-140.78 0.99-140.78 6.71L-140.78 6.71Q-140.78 10.89-137.77 13.47Q-134.76 16.05-130.09 16.05L-130.09 16.05Q-126.53 16.05-124.19 15.25Q-121.86 14.45-119.70 12.36Z"/><path fill="#545454" opacity="1" d="M-56.04-18.18L-56.04-18.18L-58.01-14.56Q-62.80-17.57-68.58-17.57L-68.58-17.57Q-72.88-17.57-74.97-15.66Q-77.06-13.76-77.06-11.18L-77.06-11.18Q-77.06-8.66-75.40-7.06Q-73.74-5.46-70.05-4.72L-70.05-4.72L-64.22-3.49Q-53.65-1.28-53.65 8.30L-53.65 8.30Q-53.65 13.34-57.61 16.72Q-61.57 20.10-68.95 20.10L-68.95 20.10Q-73.19 20.10-76.23 19.37Q-79.27 18.63-82.71 16.85L-82.71 16.85L-81.11 12.67Q-75.21 16.05-69.07 16.05L-69.07 16.05Q-63.42 16.05-60.80 13.93Q-58.19 11.81-58.19 8.37L-58.19 8.37Q-58.19 4.99-60.04 3.17Q-61.88 1.36-66.24 0.44L-66.24 0.44L-72.70-0.91Q-76.63-1.71-79.02-4.29Q-81.42-6.87-81.42-10.93L-81.42-10.93Q-81.42-15.60-78.01-18.52Q-74.60-21.44-68.58-21.44L-68.58-21.44Q-61.33-21.44-56.04-18.18Z"/><path fill="#545454" opacity="1" d=""/><path fill="#545454" opacity="1" d="M12.72-20.64L12.72 15.31L32.02 15.31L32.02 19.30L8.11 19.30L8.11-20.64L12.72-20.64Z"/><path fill="#545454" opacity="1" d="M54.75 19.30L72.02-20.64L77.43-20.64L94.63 19.30L89.78 19.30L84.06 5.85L65.08 5.85L59.48 19.30L54.75 19.30ZM75.03-15.91L74.17-15.91L66.67 2.04L82.47 2.04L75.03-15.91Z"/><path fill="#545454" opacity="1" d="M118.60 19.30L118.60-20.64L132.49-20.64Q138.26-20.64 141.89-18.12Q145.51-15.60 145.51-10.56L145.51-10.56Q145.51-8.23 144.44-6.01Q143.36-3.80 141.40-2.57L141.40-2.57L141.40-2.33Q144.71-1.10 146.53 1.45Q148.34 4.00 148.34 7.38L148.34 7.38Q148.34 12.67 144.56 15.99Q140.78 19.30 134.45 19.30L134.45 19.30L118.60 19.30ZM134.45 0.01L123.15 0.01L123.15 15.37L133.90 15.37Q138.45 15.37 141.12 13.44Q143.79 11.50 143.79 7.63L143.79 7.63Q143.79 0.01 134.45 0.01L134.45 0.01ZM132.98-16.89L123.15-16.89L123.15-3.68L133.78-3.68Q137.28-3.68 139.12-5.49Q140.97-7.30 140.97-10.38L140.97-10.38Q140.97-13.51 138.85-15.20Q136.73-16.89 132.98-16.89L132.98-16.89Z"/><path fill="#545454" opacity="1" d="M198.98-18.18L198.98-18.18L197.01-14.56Q192.22-17.57 186.44-17.57L186.44-17.57Q182.14-17.57 180.05-15.66Q177.96-13.76 177.96-11.18L177.96-11.18Q177.96-8.66 179.62-7.06Q181.28-5.46 184.96-4.72L184.96-4.72L190.80-3.49Q201.37-1.28 201.37 8.30L201.37 8.30Q201.37 13.34 197.41 16.72Q193.44 20.10 186.07 20.10L186.07 20.10Q181.83 20.10 178.79 19.37Q175.75 18.63 172.31 16.85L172.31 16.85L173.90 12.67Q179.80 16.05 185.95 16.05L185.95 16.05Q191.60 16.05 194.21 13.93Q196.82 11.81 196.82 8.37L196.82 8.37Q196.82 4.99 194.98 3.17Q193.14 1.36 188.77 0.44L188.77 0.44L182.32-0.91Q178.39-1.71 175.99-4.29Q173.60-6.87 173.60-10.93L173.60-10.93Q173.60-15.60 177.01-18.52Q180.42-21.44 186.44-21.44L186.44-21.44Q193.69-21.44 198.98-18.18Z"/></g><g transform="matrix(1.1756578469495844 0 0 1.1756578469495846 254.9223414744642 152.88241562439416)">
<g style="">
		<g transform="matrix(1 0 0 1 -46.785 -51.07)">
<polygon style="stroke: none; stroke-width: 1; stroke-dasharray: none; stroke-linecap: butt; stroke-dashoffset: 0; stroke-linejoin: miter; stroke-miterlimit: 4; fill: rgb(140,83,255); fill-rule: evenodd; opacity: 1;" points="-3.7750000000000057,-18.430000000000003 -18.345000000000006,-3.7900000000000063 3.7749999999999986,18.429999999999993 18.345,3.799999999999997 "/>
</g>
		<g transform="matrix(1 0 0 1 -36.40812325166145 -40.69)">
<path style="stroke: none; stroke-width: 1; stroke-dasharray: none; stroke-linecap: butt; stroke-dashoffset: 0; stroke-linejoin: miter; stroke-miterlimit: 4; fill: rgb(140,83,255); fill-rule: evenodd; opacity: 1;" transform=" translate(-67.72687674833855, -60.61)" d="M 74.99 53.31 c -4.02 -4.04 -10.53 -4.04 -14.54 -0.01 c -4.01 4.03 -4.01 10.57 0.01 14.61 c 4.02 4.04 10.53 4.04 14.54 0.01 C 79.02 63.89 79.01 57.35 74.99 53.31 z" stroke-linecap="round"/>
</g>
		<g transform="matrix(1 0 0 1 -58.005 11.245000000000005)">
<rect style="stroke: none; stroke-width: 1; stroke-dasharray: none; stroke-linecap: butt; stroke-dashoffset: 0; stroke-linejoin: miter; stroke-miterlimit: 4; fill: rgb(140,83,255); fill-rule: evenodd; opacity: 1;" x="-10.305" y="-74.105" rx="0" ry="0" width="20.61" height="148.21"/>
</g>
		<g transform="matrix(1 0 0 1 -19.265000000000008 45.850000000000016)">
<path style="stroke: none; stroke-width: 1; stroke-dasharray: none; stroke-linecap: butt; stroke-dashoffset: 0; stroke-linejoin: miter; stroke-miterlimit: 4; fill: rgb(140,83,255); fill-rule: evenodd; opacity: 1;" transform=" translate(-84.87, -147.15)" d="M 119.33 97.95 l -79.2 79.55 c -2.6 1.89 -4.3 4.97 -4.3 8.44 c 0 5.75 4.64 10.41 10.37 10.41 c 2.52 0 4.83 -0.9 6.63 -2.41 l 0.04 0.04 l 81.04 -81.4 L 119.33 97.95 z" stroke-linecap="round"/>
</g>
		<g transform="matrix(0.21064237999158403 -0.9775631886233652 0.9775631886233652 0.21064237999158403 22.46938814866873 3.9437155235182306)">
<ellipse style="stroke: none; stroke-width: 1; stroke-dasharray: none; stroke-linecap: butt; stroke-dashoffset: 0; stroke-linejoin: miter; stroke-miterlimit: 4; fill: rgb(140,83,255); fill-rule: evenodd; opacity: 1;" cx="0" cy="0" rx="10.33" ry="10.28"/>
</g>
		<g transform="matrix(1 0 0 1 -57.984991863256454 -62.26)">
<path style="stroke: none; stroke-width: 1; stroke-dasharray: none; stroke-linecap: butt; stroke-dashoffset: 0; stroke-linejoin: miter; stroke-miterlimit: 4; fill: rgb(140,83,255); fill-rule: evenodd; opacity: 1;" transform=" translate(-46.15000813674355, -39.04)" d="M 46.15 28.7 c -5.67 0 -10.27 4.63 -10.27 10.34 c 0 5.71 4.6 10.34 10.27 10.34 c 5.67 0 10.27 -4.63 10.27 -10.34 C 56.43 33.33 51.83 28.7 46.15 28.7 z" stroke-linecap="round"/>
</g>
		<g transform="matrix(1 0 0 1 46.790000000000006 51.04500000000001)">
<polygon style="stroke: none; stroke-width: 1; stroke-dasharray: none; stroke-linecap: butt; stroke-dashoffset: 0; stroke-linejoin: miter; stroke-miterlimit: 4; fill: rgb(84,84,84); fill-rule: evenodd; opacity: 1;" points="-3.780000000000001,-18.42500000000001 -18.340000000000003,-3.7949999999999875 3.769999999999982,18.42500000000001 18.340000000000003,3.7949999999999875 "/>
</g>
		<g transform="matrix(1 0 0 1 36.428749994184315 40.675000000000026)">
<path style="stroke: none; stroke-width: 1; stroke-dasharray: none; stroke-linecap: butt; stroke-dashoffset: 0; stroke-linejoin: miter; stroke-miterlimit: 4; fill: rgb(84,84,84); fill-rule: evenodd; opacity: 1;" transform=" translate(-140.56374999418432, -141.97500000000002)" d="M 147.82 134.68 c -4.02 -4.04 -10.52 -4.04 -14.53 -0.01 c -4.01 4.03 -4 10.57 0.01 14.6 c 4.02 4.04 10.52 4.04 14.53 0.01 C 151.85 145.25 151.84 138.71 147.82 134.68 z" stroke-linecap="round"/>
</g>
		<g transform="matrix(1 0 0 1 58.010000000000005 -11.259999999999991)">
<rect style="stroke: none; stroke-width: 1; stroke-dasharray: none; stroke-linecap: butt; stroke-dashoffset: 0; stroke-linejoin: miter; stroke-miterlimit: 4; fill: rgb(84,84,84); fill-rule: evenodd; opacity: 1;" x="-10.3" y="-74.09" rx="0" ry="0" width="20.6" height="148.18"/>
</g>
		<g transform="matrix(1 0 0 1 19.30000000000001 -45.86)">
<path style="stroke: none; stroke-width: 1; stroke-dasharray: none; stroke-linecap: butt; stroke-dashoffset: 0; stroke-linejoin: miter; stroke-miterlimit: 4; fill: rgb(84,84,84); fill-rule: evenodd; opacity: 1;" transform=" translate(-123.43500000000002, -55.44)" d="M 162.08 6.25 c -2.52 0 -4.83 0.9 -6.62 2.41 l -0.04 -0.04 L 74.43 90 l 14.56 14.63 l 79.15 -79.53 c 2.6 -1.89 4.3 -4.97 4.3 -8.44 C 172.44 10.91 167.8 6.25 162.08 6.25 z" stroke-linecap="round"/>
</g>
		<g transform="matrix(0.1971440445213522 -0.9803745333849524 0.9803745333849524 0.1971440445213522 -22.41649252794397 -3.962243396618857)">
<ellipse style="stroke: none; stroke-width: 1; stroke-dasharray: none; stroke-linecap: butt; stroke-dashoffset: 0; stroke-linejoin: miter; stroke-miterlimit: 4; fill: rgb(84,84,84); fill-rule: evenodd; opacity: 1;" cx="0" cy="0" rx="10.33" ry="10.28"/>
</g>
		<g transform="matrix(1 0 0 1 57.985 62.239999999999995)">
<path style="stroke: none; stroke-width: 1; stroke-dasharray: none; stroke-linecap: butt; stroke-dashoffset: 0; stroke-linejoin: miter; stroke-miterlimit: 4; fill: rgb(84,84,84); fill-rule: evenodd; opacity: 1;" transform=" translate(-162.12, -163.54)" d="M 162.12 153.2 c -5.67 0 -10.27 4.63 -10.27 10.34 s 4.6 10.34 10.27 10.34 c 5.67 0 10.27 -4.63 10.27 -10.34 S 167.79 153.2 162.12 153.2 z" stroke-linecap="round"/>
</g>
</g>
</g>
<g transform="matrix(1 0 0 1 250.5 250.50920967741934)" style=""><path fill="#000000" opacity="1" d=""/></g></svg>