<svg width="500" height="500" viewBox="0 0 500 500" fill="none" xmlns="http://www.w3.org/2000/svg">
<path fill-rule="evenodd" clip-rule="evenodd" d="M170.046 119.621L144.718 145.071L183.171 183.698L208.499 158.265L170.046 119.621Z" fill="#8C53FF"/>
<path fill-rule="evenodd" clip-rule="evenodd" d="M207.273 157.013C200.285 149.99 188.968 149.99 181.997 156.996C175.026 164.002 175.026 175.371 182.015 182.394C189.003 189.417 200.32 189.417 207.291 182.411C214.279 175.406 214.262 164.037 207.273 157.013Z" fill="#8C53FF"/>
<path d="M175.018 131.164H139.19V388.809H175.018V131.164Z" fill="#8C53FF"/>
<path fill-rule="evenodd" clip-rule="evenodd" d="M284.353 234.615L146.674 372.903C142.154 376.188 139.198 381.542 139.198 387.574C139.198 397.57 147.265 405.671 157.225 405.671C161.606 405.671 165.622 404.106 168.751 401.481L168.82 401.551L309.699 260.047L284.353 234.615Z" fill="#8C53FF"/>
<path d="M314.468 251.058C316.557 241.363 310.429 231.818 300.781 229.739C291.133 227.66 281.618 233.834 279.529 243.53C277.44 253.225 283.568 262.769 293.216 264.848C302.864 266.927 312.379 260.753 314.468 251.058Z" fill="#8C53FF"/>
<path fill-rule="evenodd" clip-rule="evenodd" d="M157.139 114.232C147.282 114.232 139.285 122.281 139.285 132.207C139.285 142.133 147.282 150.182 157.139 150.182C166.995 150.182 174.992 142.133 174.992 132.207C175.009 122.281 167.013 114.232 157.139 114.232Z" fill="#8C53FF"/>
<path fill-rule="evenodd" clip-rule="evenodd" d="M332.706 297.144L307.395 322.577L345.831 361.203L371.159 335.771L332.706 297.144Z" fill="#545454"/>
<path fill-rule="evenodd" clip-rule="evenodd" d="M333.879 298.465C326.891 291.442 315.592 291.442 308.621 298.448C301.65 305.454 301.667 316.823 308.638 323.828C315.627 330.851 326.926 330.851 333.897 323.846C340.885 316.84 340.868 305.471 333.879 298.465Z" fill="#545454"/>
<path d="M376.687 92.0677H340.876V349.66H376.687V92.0677Z" fill="#545454"/>
<path fill-rule="evenodd" clip-rule="evenodd" d="M358.669 75.2054C354.288 75.2054 350.272 76.77 347.161 79.3949L347.091 79.3254L206.3 220.795L231.611 246.227L369.203 107.974C373.723 104.688 376.678 99.3341 376.678 93.3019C376.678 83.3063 368.612 75.2054 358.669 75.2054Z" fill="#545454"/>
<path d="M236.49 237.073C238.445 227.35 232.186 217.891 222.51 215.945C212.834 214 203.405 220.304 201.45 230.027C199.495 239.75 205.754 249.21 215.43 251.155C225.106 253.101 234.535 246.796 236.49 237.073Z" fill="#545454"/>
<path fill-rule="evenodd" clip-rule="evenodd" d="M358.738 330.66C348.882 330.66 340.885 338.709 340.885 348.635C340.885 358.561 348.882 366.61 358.738 366.61C368.595 366.61 376.591 358.561 376.591 348.635C376.591 338.709 368.595 330.66 358.738 330.66Z" fill="#545454"/>
</svg>
